<svg width="24" height="29" viewBox="0 0 24 29" fill="none" xmlns="http://www.w3.org/2000/svg">
<path d="M24 14.0816V15.4451C22.7758 15.4451 21.9182 15.7016 21.427 16.2148C20.9432 16.7279 20.7013 17.5856 20.7013 18.7878V22.3064C20.7013 23.3179 20.6024 24.1939 20.4044 24.9343C20.2138 25.6747 19.8986 26.2868 19.4588 26.7706C19.019 27.2544 18.4326 27.6136 17.6995 27.8481C16.9665 28.0827 16.0612 28.2 14.9836 28.2V26.0449C15.8339 26.0449 16.501 25.9092 16.9848 25.638C17.4759 25.3741 17.8205 24.9673 18.0184 24.4175C18.2236 23.8677 18.3263 23.164 18.3263 22.3064V17.9081C18.3263 17.3363 18.3996 16.8159 18.5462 16.3467C18.7001 15.8776 18.9787 15.4744 19.3818 15.1372C19.785 14.8 20.3568 14.5398 21.0972 14.3565C21.8449 14.1733 22.8125 14.0816 24 14.0816ZM14.9836 0.0512218C16.0612 0.0512218 16.9665 0.168509 17.6995 0.403083C18.4326 0.637656 19.019 0.996846 19.4588 1.48065C19.8986 1.96446 20.2138 2.57655 20.4044 3.31692C20.6024 4.05729 20.7013 4.93328 20.7013 5.94487V9.46347C20.7013 10.6657 20.9432 11.5233 21.427 12.0364C21.9182 12.5496 22.7758 12.8061 24 12.8061V14.1696C22.8125 14.1696 21.8449 14.078 21.0972 13.8947C20.3568 13.7114 19.785 13.4512 19.3818 13.114C18.9787 12.7768 18.7001 12.3736 18.5462 11.9045C18.3996 11.4354 18.3263 10.9149 18.3263 10.3431V5.94487C18.3263 5.08721 18.2236 4.3835 18.0184 3.83371C17.8205 3.2766 17.4759 2.8661 16.9848 2.60221C16.501 2.33831 15.8339 2.20636 14.9836 2.20636V0.0512218ZM24 12.8061V15.4451H21.405V12.8061H24Z" fill="#4DB5FF"/>
<path d="M0 14.1184V12.7549C1.22418 12.7549 2.07817 12.4984 2.56198 11.9852C3.05312 11.4721 3.29869 10.6144 3.29869 9.41225V5.89365C3.29869 4.88205 3.39398 4.00607 3.58457 3.2657C3.78249 2.52533 4.10137 1.91324 4.54119 1.42943C4.98102 0.945624 5.56745 0.586434 6.30049 0.351861C7.03353 0.117287 7.93884 0 9.01641 0V2.15514C8.16608 2.15514 7.49535 2.28709 7.00421 2.55098C6.5204 2.81488 6.17587 3.22538 5.97062 3.78249C5.7727 4.33227 5.67374 5.03599 5.67374 5.89365V10.2919C5.67374 10.8637 5.59677 11.3841 5.44283 11.8533C5.29622 12.3224 5.02133 12.7256 4.61816 13.0628C4.21499 13.4 3.63955 13.6602 2.89185 13.8435C2.15148 14.0267 1.18753 14.1184 0 14.1184ZM9.01641 28.1488C7.93884 28.1488 7.03353 28.0315 6.30049 27.7969C5.56745 27.5623 4.98102 27.2032 4.54119 26.7193C4.10137 26.2355 3.78249 25.6235 3.58457 24.8831C3.39398 24.1427 3.29869 23.2667 3.29869 22.2551V18.7365C3.29869 17.5343 3.05312 16.6767 2.56198 16.1636C2.07817 15.6504 1.22418 15.3939 0 15.3939V14.0304C1.18753 14.0304 2.15148 14.122 2.89185 14.3053C3.63955 14.4886 4.21499 14.7488 4.61816 15.086C5.02133 15.4232 5.29622 15.8264 5.44283 16.2955C5.59677 16.7647 5.67374 17.2851 5.67374 17.8569V22.2551C5.67374 23.1128 5.7727 23.8165 5.97062 24.3663C6.17587 24.9161 6.5204 25.3229 7.00421 25.5868C7.49535 25.858 8.16608 25.9936 9.01641 25.9936V28.1488ZM0 15.3939V12.7549H2.59497V15.3939H0Z" fill="#4DB5FF"/>
</svg>
